<svg viewBox="0 0 400 560" xmlns="http://www.w3.org/2000/svg">
  <defs>
    <radialGradient id="g9bg" cx="50%" cy="30%" r="70%">
      <stop offset="0%" stop-color="#1a1060"/>
      <stop offset="50%" stop-color="#0a0828"/>
      <stop offset="100%" stop-color="#030515"/>
    </radialGradient>
    <radialGradient id="g9moon" cx="50%" cy="50%" r="50%">
      <stop offset="0%" stop-color="#fffce0"/>
      <stop offset="100%" stop-color="#f0d060"/>
    </radialGradient>
  </defs>
  <rect width="400" height="560" fill="url(#g9bg)"/>
  <!-- Via Láctea difusa -->
  <ellipse cx="200" cy="200" rx="180" ry="60" fill="rgba(140,120,255,0.08)" transform="rotate(-25 200 200)"/>
  <ellipse cx="200" cy="200" rx="120" ry="30" fill="rgba(180,160,255,0.06)" transform="rotate(-25 200 200)"/>
  <!-- Estrellas -->
  <circle cx="40"  cy="30"  r="2"   fill="white" opacity="0.9"/>
  <circle cx="90"  cy="55"  r="1.5" fill="#fff0c0" opacity="0.8"/>
  <circle cx="150" cy="20"  r="2.5" fill="white" opacity="0.95"/>
  <circle cx="200" cy="45"  r="1.8" fill="white" opacity="0.85"/>
  <circle cx="260" cy="25"  r="2"   fill="#c0d8ff" opacity="0.9"/>
  <circle cx="330" cy="60"  r="1.5" fill="white" opacity="0.7"/>
  <circle cx="370" cy="35"  r="2"   fill="white" opacity="0.8"/>
  <circle cx="70"  cy="100" r="1.5" fill="white" opacity="0.7"/>
  <circle cx="120" cy="80"  r="2"   fill="#fff0c0" opacity="0.75"/>
  <circle cx="180" cy="95"  r="1.2" fill="white" opacity="0.65"/>
  <circle cx="240" cy="70"  r="1.8" fill="white" opacity="0.8"/>
  <circle cx="295" cy="90"  r="1.5" fill="#c0d8ff" opacity="0.75"/>
  <circle cx="350" cy="110" r="1.2" fill="white" opacity="0.65"/>
  <circle cx="50"  cy="150" r="1.5" fill="white" opacity="0.6"/>
  <circle cx="105" cy="130" r="1.8" fill="white" opacity="0.7"/>
  <circle cx="160" cy="155" r="1.2" fill="#fff0c0" opacity="0.6"/>
  <circle cx="310" cy="140" r="1.5" fill="white" opacity="0.65"/>
  <circle cx="375" cy="160" r="1.2" fill="white" opacity="0.55"/>
  <!-- Luna creciente -->
  <circle cx="300" cy="100" r="40" fill="url(#g9moon)" opacity="0.95"/>
  <circle cx="320" cy="88"  r="34" fill="url(#g9bg)"/>
  <!-- Silueta ciudad/palmas -->
  <rect x="0"   y="380" width="400" height="180" fill="#050a18"/>
  <rect x="30"  y="340" width="18" height="40" fill="#080e20"/>
  <rect x="80"  y="320" width="22" height="60" fill="#060c1c"/>
  <rect x="140" y="330" width="15" height="50" fill="#080e20"/>
  <rect x="200" y="310" width="25" height="70" fill="#060c1c"/>
  <rect x="260" y="325" width="18" height="55" fill="#080e20"/>
  <rect x="320" y="335" width="20" height="45" fill="#060c1c"/>
  <rect x="355" y="345" width="14" height="35" fill="#080e20"/>
  <!-- Palmera silueta -->
  <line x1="170" y1="380" x2="170" y2="290" stroke="#060c1c" stroke-width="5"/>
  <ellipse cx="150" cy="290" rx="30" ry="15" fill="#060c1c" transform="rotate(-20 150 290)"/>
  <ellipse cx="190" cy="285" rx="30" ry="15" fill="#060c1c" transform="rotate(20 190 285)"/>
  <ellipse cx="170" cy="280" rx="25" ry="12" fill="#060c1c"/>
  <!-- Texto -->
  <text x="200" y="460" text-anchor="middle" font-family="Montserrat,sans-serif" font-weight="900" font-size="26" fill="white" letter-spacing="4">NOCHE</text>
  <text x="200" y="486" text-anchor="middle" font-family="Montserrat,sans-serif" font-weight="700" font-size="11" fill="rgba(180,180,255,0.7)" letter-spacing="5">TUMAQUEÑA</text>
  <line x1="100" y1="500" x2="300" y2="500" stroke="rgba(255,94,0,0.5)" stroke-width="1.5"/>
  <text x="200" y="518" text-anchor="middle" font-family="Montserrat,sans-serif" font-size="9" fill="rgba(255,255,255,0.35)" letter-spacing="2">PROGRAMA-PRI · TUMACO</text>
</svg>
