<svg viewBox="0 0 400 560" xmlns="http://www.w3.org/2000/svg">
  <defs>
    <linearGradient id="g7bg" x1="0%" y1="0%" x2="100%" y2="100%">
      <stop offset="0%" stop-color="#1a0a2e"/>
      <stop offset="60%" stop-color="#2d0d3a"/>
      <stop offset="100%" stop-color="#4a1a0a"/>
    </linearGradient>
  </defs>
  <rect width="400" height="560" fill="url(#g7bg)"/>
  <!-- Barras de marimba -->
  <g transform="translate(52, 200)">
    <rect x="0"   y="0" width="28" height="140" rx="3" fill="#c8a060" opacity="0.9"/>
    <rect x="34"  y="10" width="28" height="130" rx="3" fill="#d4aa70"/>
    <rect x="68"  y="20" width="28" height="120" rx="3" fill="#b8904a"/>
    <rect x="102" y="15" width="28" height="125" rx="3" fill="#d4aa70"/>
    <rect x="136" y="5"  width="28" height="135" rx="3" fill="#c8a060"/>
    <rect x="170" y="25" width="28" height="115" rx="3" fill="#b8904a"/>
    <rect x="204" y="12" width="28" height="128" rx="3" fill="#d4aa70"/>
    <rect x="238" y="0" width="28" height="140" rx="3" fill="#c8a060"/>
    <rect x="272" y="18" width="28" height="122" rx="3" fill="#b8904a"/>
  </g>
  <!-- Resonadores -->
  <g opacity="0.5">
    <ellipse cx="66"  cy="370" rx="8" ry="22" fill="#8B4513"/>
    <ellipse cx="100" cy="378" rx="8" ry="18" fill="#8B4513"/>
    <ellipse cx="134" cy="368" rx="8" ry="20" fill="#8B4513"/>
    <ellipse cx="168" cy="375" rx="8" ry="16" fill="#8B4513"/>
    <ellipse cx="202" cy="370" rx="8" ry="20" fill="#8B4513"/>
    <ellipse cx="236" cy="372" rx="8" ry="18" fill="#8B4513"/>
    <ellipse cx="270" cy="366" rx="8" ry="22" fill="#8B4513"/>
    <ellipse cx="304" cy="374" rx="8" ry="18" fill="#8B4513"/>
    <ellipse cx="338" cy="368" rx="8" ry="20" fill="#8B4513"/>
  </g>
  <!-- Baquetas -->
  <line x1="90" y1="160" x2="130" y2="220" stroke="#c8a060" stroke-width="3" stroke-linecap="round"/>
  <circle cx="90" cy="158" r="8" fill="#c8a060"/>
  <line x1="270" y1="160" x2="230" y2="220" stroke="#c8a060" stroke-width="3" stroke-linecap="round"/>
  <circle cx="270" cy="158" r="8" fill="#c8a060"/>
  <!-- Notas musicales decorativas -->
  <text x="60" y="100" font-size="30" fill="rgba(255,180,80,0.3)" font-family="serif">♪</text>
  <text x="310" y="120" font-size="24" fill="rgba(255,180,80,0.25)" font-family="serif">♫</text>
  <text x="180" y="80" font-size="28" fill="rgba(255,180,80,0.2)" font-family="serif">♩</text>
  <!-- Texto -->
  <text x="200" y="450" text-anchor="middle" font-family="Montserrat,sans-serif" font-weight="900" font-size="28" fill="white" letter-spacing="3">MARIMBA</text>
  <text x="200" y="476" text-anchor="middle" font-family="Montserrat,sans-serif" font-weight="700" font-size="11" fill="rgba(255,180,80,0.7)" letter-spacing="5">DEL PACÍFICO</text>
  <line x1="100" y1="492" x2="300" y2="492" stroke="rgba(255,94,0,0.6)" stroke-width="1.5"/>
  <text x="200" y="512" text-anchor="middle" font-family="Montserrat,sans-serif" font-size="9" fill="rgba(255,255,255,0.4)" letter-spacing="2">PROGRAMA-PRI · TUMACO</text>
</svg>
